Muli-100-Thin.ufo
<glyph name="exclam" format="1">
  <advance width="395.0"/>
  <unicode hex="0021"/>
  <outline>
    <contour>
      <point x="131.0" y="0.0" type="line"/>
      <point x="263.0" y="0.0" type="line"/>
      <point x="263.0" y="143.2" type="line"/>
      <point x="131.0" y="143.2" type="line"/>
    </contour>
    <contour>
      <point x="183.5" y="358.6" type="line"/>
      <point x="218.5" y="358.6" type="line"/>
      <point x="243.0" y="1456.0" type="line"/>
      <point x="159.0" y="1456.0" type="line"/>
    </contour>
  </outline>
</glyph>
<glyph name="comma" format="1">
  <advance width="383.5"/>
  <unicode hex="002C"/>
  <outline>
    <contour>
      <point x="105.0" y="-375.3" type="line"/>
      <point x="209.0" y="146.8" type="line"/>
      <point x="295.5" y="146.8" type="line"/>
      <point x="150.0" y="-375.3" type="line"/>
    </contour>
  </outline>
</glyph>
<glyph name="two" format="1">
  <advance width="1159.0"/>
  <unicode hex="0032"/>
  <outline>
    <contour>
      <point x="590.5" y="1484.3" type="curve" smooth="yes"/>
      <point x="869.825" y="1484.3"/>
      <point x="1063.045" y="1216.035"/>
      <point x="1013.045" y="1022.126" type="curve" smooth="yes"/>
      <point x="968.045" y="958.3517"/>
      <point x="1018.5715" y="1050.5404"/>
      <point x="679.0765" y="653.625" type="curve"/>
      <point x="1037.2015" y="1006.1"/>
      <point x="311.5" y="83.5"/>
      <point x="311.5" y="83.5" type="curve"/>
      <point x="1016.0" y="83.5" type="line"/>
      <point x="1016.0" y="0.0" type="line"/>
      <point x="243.0" y="0.0" type="line"/>
      <point x="243.0" y="112.0" type="line"/>
      <point x="-20.75" y="-90.4"/>
      <point x="1068.617" y="1201.325"/>
      <point x="735.1795" y="841.6625" type="curve"/>
      <point x="959.3095" y="1115.2766"/>
      <point x="866.7575" y="978.719"/>
      <point x="924.2575" y="975.864" type="curve" smooth="yes"/>
      <point x="974.2575" y="1138.589"/>
      <point x="877.9595" y="1404.7"/>
      <point x="598.5" y="1404.7" type="curve" smooth="yes"/>
      <point x="327.5" y="1404.7"/>
      <point x="251.0" y="1280.0"/>
      <point x="253.5" y="1280.0" type="curve"/>
      <point x="236.5" y="1347.9" type="line"/>
      <point x="236.5" y="1347.9"/>
      <point x="348.5" y="1484.3"/>
    </contour>
  </outline>
</glyph>
<glyph name="three" format="1">
  <advance width="1159.0"/>
  <unicode hex="0033"/>
  <outline>
    <contour>
      <point x="502.0" y="-23.0" type="curve" smooth="yes"/>
      <point x="419.5" y="-23.0"/>
      <point x="242.5" y="26.7"/>
      <point x="200.5" y="49.8" type="curve"/>
      <point x="210.5" y="133.8" type="line"/>
      <point x="350.5" y="64.5"/>
      <point x="436.0" y="55.3"/>
      <point x="549.0" y="55.3" type="curve" smooth="yes"/>
      <point x="742.5" y="55.3"/>
      <point x="933.0" y="172.7"/>
      <point x="933.0" y="384.7" type="curve" smooth="yes"/>
      <point x="933.0" y="630.6"/>
      <point x="791.5" y="729.0"/>
      <point x="548.0" y="736.2" type="curve" smooth="yes"/>
      <point x="462.0" y="737.5" type="line"/>
      <point x="460.0" y="813.8" type="line"/>
      <point x="509.0" y="813.8" type="line" smooth="yes"/>
      <point x="700.5" y="813.8"/>
      <point x="910.5" y="880.7"/>
      <point x="910.5" y="1122.1" type="curve" smooth="yes"/>
      <point x="910.5" y="1314.7"/>
      <point x="744.5" y="1411.3"/>
      <point x="546.0" y="1411.3" type="curve" smooth="yes"/>
      <point x="383.5" y="1411.3"/>
      <point x="253.5" y="1350.8"/>
      <point x="152.5" y="1235.3" type="curve"/>
      <point x="107.5" y="1272.0" type="line"/>
      <point x="155.0" y="1415.2"/>
      <point x="395.0" y="1483.0"/>
      <point x="550.0" y="1483.0" type="curve" smooth="yes"/>
      <point x="759.0" y="1483.0"/>
      <point x="978.5" y="1345.8"/>
      <point x="978.5" y="1120.5" type="curve" smooth="yes"/>
      <point x="978.5" y="906.8"/>
      <point x="865.0" y="836.6"/>
      <point x="728.5" y="768.3" type="curve"/>
      <point x="906.0" y="722.4"/>
      <point x="1019.5" y="608.1"/>
      <point x="1019.5" y="387.9" type="curve" smooth="yes"/>
      <point x="1019.5" y="138.0"/>
      <point x="808.5" y="-23.0"/>
    </contour>
  </outline>
</glyph>
<glyph name="five" format="1">
  <advance width="1159.0"/>
  <unicode hex="0035"/>
  <outline>
    <contour>
      <point x="585.0" y="-23.0" type="curve" smooth="yes"/>
      <point x="429.0" y="-23.0"/>
      <point x="280.0" y="-6.2"/>
      <point x="172.5" y="98.4" type="curve"/>
      <point x="192.5" y="163.9" type="line"/>
      <point x="295.5" y="65.4"/>
      <point x="443.0" y="55.3"/>
      <point x="587.0" y="55.3" type="curve" smooth="yes"/>
      <point x="901.5" y="55.3"/>
      <point x="953.0" y="288.3"/>
      <point x="953.0" y="468.4" type="curve" smooth="yes"/>
      <point x="953.0" y="678.7"/>
      <point x="829.0" y="851.9"/>
      <point x="557.0" y="851.9" type="curve" smooth="yes"/>
      <point x="437.0" y="851.9"/>
      <point x="270.5" y="780.1"/>
      <point x="220.5" y="698.4" type="curve"/>
      <point x="170.5" y="664.7" type="line"/>
      <point x="170.5" y="1456.0" type="line"/>
      <point x="915.0" y="1456.0" type="line"/>
      <point x="915.0" y="1374.4" type="line"/>
      <point x="270.0" y="1374.4" type="line"/>
      <point x="251.0" y="826.7" type="line"/>
      <point x="319.5" y="876.6"/>
      <point x="432.5" y="928.3"/>
      <point x="513.5" y="928.3" type="curve" smooth="yes"/>
      <point x="885.0" y="928.3"/>
      <point x="1037.5" y="719.3"/>
      <point x="1037.5" y="464.4" type="curve" smooth="yes"/>
      <point x="1037.5" y="250.3"/>
      <point x="976.5" y="-23.0"/>
    </contour>
  </outline>
</glyph>
<glyph name="seven" format="1">
  <advance width="1159.0"/>
  <unicode hex="0037"/>
  <outline>
    <contour>
      <point x="406.0" y="0.0" type="line"/>
      <point x="814.0" y="1372.5" type="line"/>
      <point x="200.0" y="1372.5" type="line"/>
      <point x="200.0" y="1456.0" type="line"/>
      <point x="893.5" y="1456.0" type="line"/>
      <point x="893.5" y="1394.1" type="line"/>
      <point x="500.5" y="0.0" type="line"/>
    </contour>
  </outline>
</glyph>
<glyph name="nine" format="1">
  <advance width="1159.0"/>
  <unicode hex="0039"/>
  <outline>
    <contour>
      <point x="540.75" y="-21.7" type="curve" smooth="yes"/>
      <point x="409.75" y="-21.7"/>
      <point x="332.75" y="-12.8"/>
      <point x="220.25" y="51.9" type="curve"/>
      <point x="222.25" y="112.6" type="line"/>
      <point x="367.75" y="47.7"/>
      <point x="444.25" y="53.0"/>
      <point x="535.75" y="53.0" type="curve" smooth="yes"/>
      <point x="821.75" y="53.0"/>
      <point x="933.75" y="299.5"/>
      <point x="933.75" y="685.8" type="curve" smooth="yes"/>
      <point x="933.75" y="787.1" type="line"/>
      <point x="876.25" y="649.4"/>
      <point x="770.75" y="570.5"/>
      <point x="548.25" y="570.5" type="curve" smooth="yes"/>
      <point x="286.25" y="570.5"/>
      <point x="156.25" y="760.2"/>
      <point x="156.25" y="1016.1" type="curve" smooth="yes"/>
      <point x="156.25" y="1277.6"/>
      <point x="300.75" y="1483.0"/>
      <point x="584.75" y="1483.0" type="curve" smooth="yes"/>
      <point x="900.75" y="1483.0"/>
      <point x="1013.75" y="1220.2"/>
      <point x="1013.75" y="777.6" type="curve" smooth="yes"/>
      <point x="1013.75" y="101.9"/>
      <point x="765.75" y="-21.7"/>
    </contour>
    <contour>
      <point x="239.25" y="1024.4" type="curve" smooth="yes"/>
      <point x="239.25" y="809.0"/>
      <point x="312.75" y="646.1"/>
      <point x="573.25" y="646.1" type="curve" smooth="yes"/>
      <point x="779.75" y="646.1"/>
      <point x="913.75" y="783.7"/>
      <point x="913.75" y="965.8" type="curve" smooth="yes"/>
      <point x="913.75" y="1181.7"/>
      <point x="819.25" y="1401.4"/>
      <point x="554.25" y="1401.4" type="curve" smooth="yes"/>
      <point x="342.75" y="1401.4"/>
      <point x="239.25" y="1234.6"/>
    </contour>
  </outline>
</glyph>
<glyph name="colon" format="1">
  <advance width="451.5"/>
  <unicode hex="003A"/>
  <outline>
    <contour>
      <point x="163.5" y="25.3" type="line"/>
      <point x="163.5" y="175.1" type="line"/>
      <point x="288.0" y="175.1" type="line"/>
      <point x="288.0" y="25.3" type="line"/>
    </contour>
    <contour>
      <point x="163.5" y="608.4" type="line"/>
      <point x="163.5" y="761.5" type="line"/>
      <point x="290.5" y="761.5" type="line"/>
      <point x="288.0" y="608.4" type="line"/>
    </contour>
  </outline>
</glyph>
<glyph name="less" format="1">
  <advance width="972.0"/>
  <unicode hex="003C"/>
  <outline>
    <contour>
      <point x="754.0" y="117.9" type="line"/>
      <point x="28.0" y="573.4" type="line"/>
      <point x="28.0" y="638.2" type="line"/>
      <point x="758.0" y="1001.4" type="line"/>
      <point x="758.0" y="919.7" type="line"/>
      <point x="89.5" y="594.1" type="line"/>
      <point x="754.0" y="202.2" type="line"/>
    </contour>
  </outline>
</glyph>
<glyph name="A" format="1">
  <advance width="1288.5"/>
  <unicode hex="0041"/>
  <outline>
    <contour>
      <point x="53.5" y="0.0" type="line"/>
      <point x="129.5" y="0.0" type="line"/>
      <point x="288.0" y="416.8" type="line"/>
      <point x="1011.5" y="416.8" type="line"/>
      <point x="1169.5" y="0.0" type="line"/>
      <point x="1238.5" y="0.0" type="line"/>
      <point x="700.5" y="1456.0" type="line"/>
      <point x="593.5" y="1456.0" type="line"/>
    </contour>
    <contour>
      <point x="295.0" y="478.4" type="line"/>
      <point x="646.0" y="1433.1" type="line"/>
      <point x="1003.5" y="478.4" type="line"/>
    </contour>
  </outline>
</glyph>
<glyph name="B" format="1">
  <advance width="1325.5"/>
  <unicode hex="0042"/>
  <outline>
    <contour>
      <point x="206.0" y="0.0" type="line"/>
      <point x="206.0" y="1456.0" type="line"/>
      <point x="511.0" y="1456.0" type="line" smooth="yes"/>
      <point x="810.5" y="1456.0"/>
      <point x="1122.0" y="1429.0"/>
      <point x="1122.0" y="1154.0" type="curve" smooth="yes"/>
      <point x="1122.0" y="960.3"/>
      <point x="988.0" y="810.3"/>
      <point x="774.5" y="811.3" type="curve"/>
      <point x="1004.0" y="799.3"/>
      <point x="1196.0" y="683.7"/>
      <point x="1196.0" y="450.3" type="curve" smooth="yes"/>
      <point x="1196.0" y="209.2"/>
      <point x="1015.5" y="0.0"/>
      <point x="702.5" y="0.0" type="curve" smooth="yes"/>
    </contour>
    <contour>
      <point x="285.5" y="81.6" type="line"/>
      <point x="684.0" y="81.6" type="line" smooth="yes"/>
      <point x="968.5" y="81.6"/>
      <point x="1115.5" y="230.5"/>
      <point x="1115.5" y="443.8" type="curve" smooth="yes"/>
      <point x="1115.5" y="691.1"/>
      <point x="943.5" y="762.9"/>
      <point x="613.5" y="762.9" type="curve" smooth="yes"/>
      <point x="285.5" y="762.9" type="line"/>
    </contour>
    <contour>
      <point x="287.0" y="848.7" type="line"/>
      <point x="559.5" y="848.7" type="line" smooth="yes"/>
      <point x="828.5" y="848.7"/>
      <point x="1043.5" y="899.3"/>
      <point x="1043.5" y="1136.2" type="curve" smooth="yes"/>
      <point x="1043.5" y="1373.4"/>
      <point x="833.5" y="1374.4"/>
      <point x="601.0" y="1374.4" type="curve" smooth="yes"/>
      <point x="287.0" y="1374.4" type="line"/>
    </contour>
  </outline>
</glyph>
<glyph name="C" format="1">
  <advance width="1314.0"/>
  <unicode hex="0043"/>
  <outline>
    <contour>
      <point x="805.0" y="-22.0" type="curve" smooth="yes"/>
      <point x="456.0" y="-22.0"/>
      <point x="109.5" y="187.5"/>
      <point x="109.5" y="698.6" type="curve" smooth="yes"/>
      <point x="109.5" y="1015.4"/>
      <point x="269.5" y="1479.7"/>
      <point x="818.5" y="1479.7" type="curve" smooth="yes"/>
      <point x="1014.5" y="1479.7"/>
      <point x="1143.5" y="1431.8"/>
      <point x="1233.0" y="1343.5" type="curve"/>
      <point x="1197.5" y="1287.7" type="line"/>
      <point x="1133.0" y="1346.7"/>
      <point x="993.0" y="1407.0"/>
      <point x="831.5" y="1407.0" type="curve" smooth="yes"/>
      <point x="327.0" y="1407.0"/>
      <point x="202.5" y="982.1"/>
      <point x="202.5" y="695.0" type="curve" smooth="yes"/>
      <point x="202.5" y="277.5"/>
      <point x="448.5" y="54.0"/>
      <point x="802.5" y="54.0" type="curve" smooth="yes"/>
      <point x="960.5" y="54.0"/>
      <point x="1097.5" y="109.5"/>
      <point x="1231.0" y="194.4" type="curve"/>
      <point x="1259.5" y="111.3" type="line"/>
      <point x="1140.5" y="35.2"/>
      <point x="976.5" y="-22.0"/>
    </contour>
  </outline>
</glyph>
<glyph name="D" format="1">
  <advance width="1458.0"/>
  <unicode hex="0044"/>
  <outline>
    <contour>
      <point x="287.0" y="81.6" type="line"/>
      <point x="598.0" y="81.6" type="line" smooth="yes"/>
      <point x="1105.0" y="81.6"/>
      <point x="1260.5" y="379.8"/>
      <point x="1260.5" y="703.0" type="curve" smooth="yes"/>
      <point x="1260.5" y="1259.1"/>
      <point x="975.5" y="1374.4"/>
      <point x="420.5" y="1374.4" type="curve" smooth="yes"/>
      <point x="287.0" y="1374.4" type="line"/>
    </contour>
    <contour>
      <point x="206.0" y="0.0" type="line"/>
      <point x="206.0" y="1456.0" type="line"/>
      <point x="401.0" y="1456.0" type="line" smooth="yes"/>
      <point x="844.0" y="1456.0"/>
      <point x="1348.5" y="1386.5"/>
      <point x="1348.5" y="711.9" type="curve" smooth="yes"/>
      <point x="1348.5" y="308.5"/>
      <point x="1074.5" y="0.0"/>
      <point x="585.0" y="0.0" type="curve" smooth="yes"/>
    </contour>
  </outline>
</glyph>
<glyph name="E" format="1">
  <advance width="1049.5"/>
  <unicode hex="0045"/>
  <outline>
    <contour>
      <point x="206.0" y="0.0" type="line"/>
      <point x="206.0" y="1456.0" type="line"/>
      <point x="997.0" y="1456.0" type="line"/>
      <point x="997.0" y="1374.4" type="line"/>
      <point x="287.0" y="1374.4" type="line"/>
      <point x="287.0" y="862.2" type="line"/>
      <point x="956.5" y="862.2" type="line"/>
      <point x="956.5" y="782.9" type="line"/>
      <point x="285.5" y="782.9" type="line"/>
      <point x="285.5" y="81.6" type="line"/>
      <point x="1029.5" y="81.6" type="line"/>
      <point x="1029.5" y="0.0" type="line"/>
    </contour>
  </outline>
</glyph>
<glyph name="F" format="1">
  <advance width="1055.0"/>
  <unicode hex="0046"/>
  <outline>
    <contour>
      <point x="206.0" y="0.0" type="line"/>
      <point x="206.0" y="1456.0" type="line"/>
      <point x="962.5" y="1456.0" type="line"/>
      <point x="962.5" y="1374.4" type="line"/>
      <point x="287.0" y="1374.4" type="line"/>
      <point x="287.0" y="877.0" type="line"/>
      <point x="903.5" y="877.0" type="line"/>
      <point x="903.5" y="797.7" type="line"/>
      <point x="287.0" y="797.7" type="line"/>
      <point x="287.0" y="0.0" type="line"/>
    </contour>
  </outline>
</glyph>
<glyph name="G" format="1">
  <advance width="1508.0"/>
  <unicode hex="0047"/>
  <outline>
    <contour>
      <point x="829.0" y="-19.7" type="curve" smooth="yes"/>
      <point x="358.5" y="-19.7"/>
      <point x="109.5" y="267.0"/>
      <point x="109.5" y="697.4" type="curve" smooth="yes"/>
      <point x="109.5" y="1241.2"/>
      <point x="542.0" y="1479.7"/>
      <point x="825.0" y="1479.7" type="curve" smooth="yes"/>
      <point x="844.5" y="1479.7"/>
      <point x="1051.0" y="1510.5"/>
      <point x="1298.5" y="1334.7" type="curve"/>
      <point x="1264.5" y="1273.6" type="line"/>
      <point x="1051.5" y="1411.4"/>
      <point x="896.0" y="1407.0"/>
      <point x="841.0" y="1407.0" type="curve" smooth="yes"/>
      <point x="581.0" y="1407.0"/>
      <point x="193.5" y="1218.5"/>
      <point x="193.5" y="711.7" type="curve" smooth="yes"/>
      <point x="193.5" y="318.2"/>
      <point x="375.0" y="55.3"/>
      <point x="829.5" y="55.3" type="curve" smooth="yes"/>
      <point x="978.5" y="55.3"/>
      <point x="1152.0" y="82.5"/>
      <point x="1263.0" y="134.9" type="curve"/>
      <point x="1263.0" y="643.7" type="line"/>
      <point x="851.5" y="643.7" type="line"/>
      <point x="851.5" y="722.0" type="line"/>
      <point x="1340.0" y="722.0" type="line"/>
      <point x="1340.0" y="77.1" type="line"/>
      <point x="1202.0" y="9.3"/>
      <point x="1004.0" y="-19.7"/>
    </contour>
  </outline>
</glyph>
<glyph name="I" format="1">
  <advance width="580.5"/>
  <unicode hex="0049"/>
  <outline>
    <contour>
      <point x="248.5" y="0.0" type="line"/>
      <point x="248.5" y="1456.0" type="line"/>
      <point x="329.5" y="1456.0" type="line"/>
      <point x="329.5" y="0.0" type="line"/>
    </contour>
  </outline>
</glyph>
<glyph name="L" format="1">
  <advance width="973.5"/>
  <unicode hex="004C"/>
  <outline>
    <contour>
      <point x="206.0" y="0.0" type="line"/>
      <point x="206.0" y="1456.0" type="line"/>
      <point x="287.0" y="1456.0" type="line"/>
      <point x="287.0" y="81.6" type="line"/>
      <point x="971.5" y="81.6" type="line"/>
      <point x="971.5" y="0.0" type="line"/>
    </contour>
  </outline>
</glyph>
<glyph name="O" format="1">
  <advance width="1550.0"/>
  <unicode hex="004F"/>
  <outline>
    <contour>
      <point x="781.0" y="55.3" type="curve" smooth="yes"/>
      <point x="1205.5" y="55.3"/>
      <point x="1349.0" y="357.0"/>
      <point x="1349.0" y="720.8" type="curve" smooth="yes"/>
      <point x="1349.0" y="1048.5"/>
      <point x="1209.0" y="1404.7"/>
      <point x="778.0" y="1404.7" type="curve" smooth="yes"/>
      <point x="375.0" y="1404.7"/>
      <point x="195.5" y="1042.9"/>
      <point x="195.5" y="720.8" type="curve" smooth="yes"/>
      <point x="195.5" y="359.3"/>
      <point x="381.0" y="55.3"/>
    </contour>
    <contour>
      <point x="775.5" y="-19.7" type="curve" smooth="yes"/>
      <point x="345.0" y="-19.7"/>
      <point x="109.5" y="264.1"/>
      <point x="109.5" y="720.8" type="curve" smooth="yes"/>
      <point x="109.5" y="1149.3"/>
      <point x="340.5" y="1479.7"/>
      <point x="771.5" y="1479.7" type="curve" smooth="yes"/>
      <point x="1192.5" y="1479.7"/>
      <point x="1444.0" y="1144.7"/>
      <point x="1444.0" y="720.8" type="curve" smooth="yes"/>
      <point x="1444.0" y="268.4"/>
      <point x="1198.0" y="-19.7"/>
    </contour>
  </outline>
</glyph>
<glyph name="P" format="1">
  <advance width="1179.0"/>
  <unicode hex="0050"/>
  <outline>
    <contour>
      <point x="206.0" y="0.0" type="line"/>
      <point x="206.0" y="1456.0" type="line"/>
      <point x="628.0" y="1456.0" type="line" smooth="yes"/>
      <point x="961.5" y="1456.0"/>
      <point x="1107.5" y="1343.1"/>
      <point x="1107.5" y="1086.9" type="curve" smooth="yes"/>
      <point x="1107.5" y="799.3"/>
      <point x="888.5" y="713.2"/>
      <point x="644.0" y="713.2" type="curve" smooth="yes"/>
      <point x="287.0" y="713.2" type="line"/>
      <point x="287.0" y="0.0" type="line"/>
    </contour>
    <contour>
      <point x="287.0" y="791.5" type="line"/>
      <point x="647.0" y="791.5" type="line" smooth="yes"/>
      <point x="910.0" y="791.5"/>
      <point x="1043.5" y="853.9"/>
      <point x="1043.5" y="1084.9" type="curve" smooth="yes"/>
      <point x="1043.5" y="1299.4"/>
      <point x="923.0" y="1379.0"/>
      <point x="623.0" y="1379.0" type="curve" smooth="yes"/>
      <point x="287.0" y="1379.0" type="line"/>
    </contour>
  </outline>
</glyph>
<glyph name="R" format="1">
  <advance width="1268.0"/>
  <unicode hex="0052"/>
  <outline>
    <contour>
      <point x="206.0" y="0.0" type="line"/>
      <point x="206.0" y="1456.0" type="line"/>
      <point x="523.5" y="1456.0" type="line" smooth="yes"/>
      <point x="693.0" y="1456.0"/>
      <point x="1017.5" y="1455.6"/>
      <point x="1017.5" y="1104.2" type="curve" smooth="yes"/>
      <point x="1017.5" y="887.8"/>
      <point x="946.5" y="792.0"/>
      <point x="777.5" y="745.0" type="curve"/>
      <point x="993.5" y="707.3"/>
      <point x="1010.5" y="477.2"/>
      <point x="1072.0" y="328.1" type="curve" smooth="yes"/>
      <point x="1186.0" y="0.0" type="line"/>
      <point x="1099.0" y="0.0" type="line"/>
      <point x="943.5" y="433.0" type="line" smooth="yes"/>
      <point x="859.5" y="652.6"/>
      <point x="840.5" y="712.1"/>
      <point x="611.5" y="712.1" type="curve" smooth="yes"/>
      <point x="287.0" y="712.1" type="line"/>
      <point x="287.0" y="0.0" type="line"/>
    </contour>
    <contour>
      <point x="291.0" y="791.7" type="line"/>
      <point x="560.5" y="791.7" type="line" smooth="yes"/>
      <point x="776.5" y="791.7"/>
      <point x="929.5" y="844.3"/>
      <point x="929.5" y="1084.6" type="curve" smooth="yes"/>
      <point x="929.5" y="1326.5"/>
      <point x="805.5" y="1374.4"/>
      <point x="554.0" y="1374.4" type="curve" smooth="yes"/>
      <point x="291.0" y="1374.4" type="line"/>
    </contour>
  </outline>
</glyph>
<glyph name="U" format="1">
  <advance width="1471.0"/>
  <unicode hex="0055"/>
  <outline>
    <contour>
      <point x="718.0" y="-19.7" type="curve" smooth="yes"/>
      <point x="371.0" y="-19.7"/>
      <point x="182.5" y="152.1"/>
      <point x="182.5" y="492.0" type="curve" smooth="yes"/>
      <point x="182.5" y="1456.0" type="line"/>
      <point x="263.5" y="1456.0" type="line"/>
      <point x="263.5" y="512.7" type="line" smooth="yes"/>
      <point x="263.5" y="276.7"/>
      <point x="329.5" y="55.3"/>
      <point x="735.5" y="55.3" type="curve" smooth="yes"/>
      <point x="1092.5" y="55.3"/>
      <point x="1211.0" y="263.5"/>
      <point x="1211.0" y="489.6" type="curve" smooth="yes"/>
      <point x="1211.0" y="1456.0" type="line"/>
      <point x="1288.5" y="1456.0" type="line"/>
      <point x="1288.5" y="505.2" type="line"/>
      <point x="1285.0" y="109.2"/>
      <point x="988.0" y="-19.7"/>
    </contour>
  </outline>
</glyph>
<glyph name="V" format="1">
  <advance width="1175.0"/>
  <unicode hex="0056"/>
  <outline>
    <contour>
      <point x="534.0" y="0.0" type="line"/>
      <point x="5.5" y="1456.0" type="line"/>
      <point x="95.5" y="1456.0" type="line"/>
      <point x="607.0" y="47.3" type="line"/>
      <point x="590.0" y="52.3" type="line"/>
      <point x="579.0" y="52.9" type="line"/>
      <point x="1086.0" y="1456.0" type="line"/>
      <point x="1169.5" y="1456.0" type="line"/>
      <point x="646.5" y="0.0" type="line"/>
    </contour>
  </outline>
</glyph>
<glyph name="W" format="1">
  <advance width="1773.0"/>
  <unicode hex="0057"/>
  <outline>
    <contour>
      <point x="405.0" y="0.0" type="line"/>
      <point x="35.0" y="1456.0" type="line"/>
      <point x="132.0" y="1456.0" type="line"/>
      <point x="466.0" y="100.5" type="line"/>
      <point x="455.0" y="71.2" type="line"/>
      <point x="447.0" y="79.7" type="line"/>
      <point x="843.0" y="1456.0" type="line"/>
      <point x="953.5" y="1456.0" type="line"/>
      <point x="1341.5" y="100.4" type="line"/>
      <point x="1332.0" y="87.0" type="line"/>
      <point x="1312.5" y="71.7" type="line"/>
      <point x="1656.0" y="1456.0" type="line"/>
      <point x="1738.0" y="1456.0" type="line"/>
      <point x="1385.0" y="0.0" type="line"/>
      <point x="1277.5" y="0.0" type="line"/>
      <point x="900.5" y="1354.0" type="line"/>
      <point x="508.5" y="0.0" type="line"/>
    </contour>
  </outline>
</glyph>
<glyph name="X" format="1">
  <advance width="959.5"/>
  <unicode hex="0058"/>
  <outline>
    <contour>
      <point x="923.0" y="0.0" type="line"/>
      <point x="470.0" y="681.6" type="line"/>
      <point x="45.5" y="0.0" type="line"/>
      <point x="-29.0" y="0.0" type="line"/>
      <point x="423.0" y="750.2" type="line"/>
      <point x="-51.0" y="1456.0" type="line"/>
      <point x="32.0" y="1456.0" type="line"/>
      <point x="463.0" y="816.6" type="line"/>
      <point x="867.0" y="1456.0" type="line"/>
      <point x="947.5" y="1456.0" type="line"/>
      <point x="506.5" y="753.6" type="line"/>
      <point x="994.5" y="0.0" type="line"/>
    </contour>
  </outline>
</glyph>
<glyph name="bracketleft" format="1">
  <advance width="729.5"/>
  <unicode hex="005B"/>
  <outline>
    <contour>
      <point x="226.5" y="-349.2" type="line"/>
      <point x="226.5" y="1410.2" type="line"/>
      <point x="617.5" y="1410.2" type="line"/>
      <point x="617.5" y="1355.6" type="line"/>
      <point x="293.0" y="1355.6" type="line"/>
      <point x="293.0" y="-294.6" type="line"/>
      <point x="618.5" y="-294.6" type="line"/>
      <point x="618.5" y="-349.2" type="line"/>
    </contour>
  </outline>
</glyph>
<glyph name="backslash" format="1">
  <advance width="807.5"/>
  <unicode hex="005C"/>
  <outline>
    <contour>
      <point x="578.0" y="91.6" type="line"/>
      <point x="189.5" y="1456.0" type="line"/>
      <point x="253.0" y="1456.0" type="line"/>
      <point x="641.0" y="91.6" type="line"/>
    </contour>
  </outline>
</glyph>
<glyph name="asciicircum" format="1">
  <advance width="1750.5"/>
  <unicode hex="005E"/>
  <outline>
    <contour>
      <point x="427.5" y="613.9" type="line"/>
      <point x="854.0" y="1456.0" type="line"/>
      <point x="887.0" y="1456.0" type="line"/>
      <point x="1323.0" y="613.9" type="line"/>
      <point x="1275.0" y="613.9" type="line"/>
      <point x="871.0" y="1393.6" type="line"/>
      <point x="476.0" y="613.9" type="line"/>
    </contour>
  </outline>
</glyph>
<glyph name="grave" format="1">
  <advance width="572.0"/>
  <unicode hex="0060"/>
  <outline>
    <contour>
      <point x="464.0" y="1187.8" type="line"/>
      <point x="154.5" y="1826.2" type="line"/>
      <point x="254.5" y="1826.2" type="line"/>
      <point x="485.5" y="1187.8" type="line"/>
    </contour>
  </outline>
</glyph>
<glyph name="c" format="1">
  <advance width="951.0"/>
  <unicode hex="0063"/>
  <outline>
    <contour>
      <point x="584.5" y="-19.7" type="curve" smooth="yes"/>
      <point x="326.0" y="-19.7"/>
      <point x="93.5" y="129.3"/>
      <point x="93.5" y="492.2" type="curve" smooth="yes"/>
      <point x="93.5" y="862.9"/>
      <point x="337.5" y="1052.0"/>
      <point x="604.5" y="1052.0" type="curve" smooth="yes"/>
      <point x="690.5" y="1052.0"/>
      <point x="796.0" y="1015.9"/>
      <point x="863.5" y="956.6" type="curve"/>
      <point x="839.0" y="896.0" type="line"/>
      <point x="769.5" y="954.6"/>
      <point x="663.5" y="979.8"/>
      <point x="589.0" y="979.8" type="curve" smooth="yes"/>
      <point x="437.5" y="979.8"/>
      <point x="167.0" y="891.0"/>
      <point x="167.0" y="495.5" type="curve" smooth="yes"/>
      <point x="167.0" y="204.7"/>
      <point x="327.0" y="49.2"/>
      <point x="555.5" y="49.2" type="curve" smooth="yes"/>
      <point x="625.5" y="49.2"/>
      <point x="759.5" y="47.2"/>
      <point x="872.5" y="132.0" type="curve"/>
      <point x="899.0" y="81.1" type="line"/>
      <point x="846.0" y="23.9"/>
      <point x="726.5" y="-19.7"/>
    </contour>
  </outline>
</glyph>
<glyph name="d" format="1">
  <advance width="1260.0"/>
  <unicode hex="0064"/>
  <outline>
    <contour>
      <point x="571.5" y="-19.7" type="curve" smooth="yes"/>
      <point x="267.5" y="-19.7"/>
      <point x="88.5" y="182.0"/>
      <point x="88.5" y="504.7" type="curve" smooth="yes"/>
      <point x="88.5" y="887.8"/>
      <point x="306.0" y="1052.0"/>
      <point x="560.5" y="1052.0" type="curve" smooth="yes"/>
      <point x="739.0" y="1052.0"/>
      <point x="897.5" y="964.0"/>
      <point x="959.0" y="807.7" type="curve"/>
      <point x="959.0" y="1525.7" type="line"/>
      <point x="1036.5" y="1525.7" type="line"/>
      <point x="1036.5" y="239.0" type="line" smooth="yes"/>
      <point x="1040.0" y="101.1"/>
      <point x="1044.5" y="-82.0"/>
      <point x="1041.0" y="0.0" type="curve"/>
      <point x="971.5" y="0.0" type="line"/>
      <point x="962.5" y="234.7" type="line"/>
      <point x="892.0" y="71.4"/>
      <point x="749.0" y="-19.7"/>
    </contour>
    <contour>
      <point x="547.5" y="49.2" type="curve" smooth="yes"/>
      <point x="765.5" y="49.2"/>
      <point x="955.5" y="182.8"/>
      <point x="955.5" y="548.0" type="curve" smooth="yes"/>
      <point x="955.5" y="815.9"/>
      <point x="780.5" y="983.1"/>
      <point x="568.5" y="983.1" type="curve" smooth="yes"/>
      <point x="349.5" y="983.1"/>
      <point x="160.5" y="819.2"/>
      <point x="160.5" y="498.5" type="curve" smooth="yes"/>
      <point x="160.5" y="189.4"/>
      <point x="347.0" y="49.2"/>
    </contour>
  </outline>
</glyph>
<glyph name="f" format="1">
  <advance width="560.5"/>
  <unicode hex="0066"/>
  <outline>
    <contour>
      <point x="234.5" y="0.0" type="line"/>
      <point x="234.5" y="976.9" type="line"/>
      <point x="66.5" y="976.9" type="line"/>
      <point x="66.5" y="1026.0" type="line"/>
      <point x="234.5" y="1026.0" type="line"/>
      <point x="234.5" y="1188.5" type="line" smooth="yes"/>
      <point x="234.5" y="1398.6"/>
      <point x="297.5" y="1500.5"/>
      <point x="561.5" y="1500.5" type="curve" smooth="yes"/>
      <point x="599.5" y="1500.5" type="line"/>
      <point x="609.0" y="1436.3" type="line"/>
      <point x="324.0" y="1436.3"/>
      <point x="312.0" y="1353.2"/>
      <point x="312.0" y="1230.8" type="curve" smooth="yes"/>
      <point x="312.0" y="1026.0" type="line"/>
      <point x="577.5" y="1026.0" type="line"/>
      <point x="577.5" y="976.9" type="line"/>
      <point x="312.0" y="976.9" type="line"/>
      <point x="312.0" y="0.0" type="line"/>
    </contour>
  </outline>
</glyph>
<glyph name="g" format="1">
  <advance width="1265.0"/>
  <unicode hex="0067"/>
  <outline>
    <contour>
      <point x="531.5" y="165.2" type="curve" smooth="yes"/>
      <point x="753.0" y="165.2"/>
      <point x="965.5" y="246.4"/>
      <point x="965.5" y="597.9" type="curve" smooth="yes"/>
      <point x="965.5" y="857.9"/>
      <point x="788.0" y="983.1"/>
      <point x="569.0" y="983.1" type="curve" smooth="yes"/>
      <point x="344.0" y="983.1"/>
      <point x="160.5" y="847.2"/>
      <point x="160.5" y="529.2" type="curve" smooth="yes"/>
      <point x="160.5" y="261.2"/>
      <point x="331.0" y="165.2"/>
    </contour>
    <contour>
      <point x="992.5" y="396.4" type="line"/>
      <point x="920.5645" y="195.713"/>
      <point x="743.3865" y="81.80397"/>
      <point x="526.252" y="81.80397" type="curve" smooth="yes"/>
      <point x="325.0905" y="81.80397"/>
      <point x="88.5" y="224.9943"/>
      <point x="88.5" y="521.6" type="curve" smooth="yes"/>
      <point x="88.5" y="905.3"/>
      <point x="315.0" y="1052.0"/>
      <point x="567.0" y="1052.0" type="curve" smooth="yes"/>
      <point x="874.0" y="1052.0"/>
      <point x="928.5" y="861.4"/>
      <point x="1021.0" y="761.7" type="curve"/>
      <point x="976.5" y="765.4" type="line"/>
      <point x="990.5" y="1026.0" type="line"/>
      <point x="1047.0" y="1026.0" type="line"/>
      <point x="1047.0" y="1026.0"/>
      <point x="1057.0" y="842.3"/>
      <point x="1057.0" y="863.3" type="curve" smooth="yes"/>
      <point x="1057.0" y="147.0" type="line" smooth="yes"/>
      <point x="1057.0" y="-326.5"/>
      <point x="714.5" y="-396.2"/>
      <point x="573.5" y="-396.2" type="curve" smooth="yes"/>
      <point x="416.5" y="-396.2"/>
      <point x="313.0" y="-367.2"/>
      <point x="191.5" y="-309.8" type="curve"/>
      <point x="196.5" y="-234.5" type="line"/>
      <point x="303.0" y="-282.5"/>
      <point x="373.0" y="-347.4"/>
      <point x="586.5" y="-347.4" type="curve" smooth="yes"/>
      <point x="858.0" y="-347.4"/>
      <point x="979.0" y="-153.5"/>
      <point x="979.0" y="205.4" type="curve" smooth="yes"/>
      <point x="979.0" y="410.2" type="line"/>
    </contour>
  </outline>
</glyph>
<glyph name="h" format="1">
  <advance width="1268.5"/>
  <unicode hex="0068"/>
  <outline>
    <contour>
      <point x="218.0" y="0.0" type="line"/>
      <point x="218.0" y="1525.7" type="line"/>
      <point x="293.0" y="1525.7" type="line"/>
      <point x="293.0" y="822.0" type="line"/>
      <point x="369.0" y="953.7"/>
      <point x="490.0" y="1052.0"/>
      <point x="716.5" y="1052.0" type="curve" smooth="yes"/>
      <point x="831.0" y="1052.0"/>
      <point x="1076.5" y="1021.2"/>
      <point x="1076.5" y="698.8" type="curve" smooth="yes"/>
      <point x="1076.5" y="0.0" type="line"/>
      <point x="1001.5" y="0.0" type="line"/>
      <point x="1001.5" y="671.8" type="line" smooth="yes"/>
      <point x="1001.5" y="874.1"/>
      <point x="930.5" y="983.1"/>
      <point x="698.0" y="983.1" type="curve" smooth="yes"/>
      <point x="477.5" y="983.1"/>
      <point x="293.0" y="810.7"/>
      <point x="293.0" y="628.9" type="curve" smooth="yes"/>
      <point x="293.0" y="0.0" type="line"/>
    </contour>
  </outline>
</glyph>
<glyph name="j" format="1">
  <advance width="589.5"/>
  <unicode hex="006A"/>
  <outline>
    <contour>
      <point x="99.0" y="-444.0" type="curve" smooth="yes"/>
      <point x="164.0" y="-444.0"/>
      <point x="306.5" y="-463.4"/>
      <point x="306.5" y="-66.1" type="curve" smooth="yes"/>
      <point x="306.5" y="1026.0" type="line"/>
      <point x="229.0" y="1026.0" type="line"/>
      <point x="229.0" y="-46.6" type="line" smooth="yes"/>
      <point x="229.0" y="-273.2"/>
      <point x="249.0" y="-372.3"/>
      <point x="66.5" y="-372.3" type="curve" smooth="yes"/>
      <point x="7.5" y="-372.3"/>
      <point x="-52.0" y="-351.0"/>
      <point x="-52.0" y="-351.0" type="curve"/>
      <point x="-61.5" y="-424.3" type="line"/>
      <point x="50.5" y="-450.7"/>
      <point x="114.5" y="-444.0"/>
    </contour>
    <contour>
      <point x="229.0" y="1362.5" type="line"/>
      <point x="306.5" y="1362.5" type="line"/>
      <point x="306.5" y="1456.0" type="line"/>
      <point x="229.0" y="1456.0" type="line"/>
    </contour>
  </outline>
</glyph>
<glyph name="k" format="1">
  <advance width="1045.5"/>
  <unicode hex="006B"/>
  <outline>
    <contour>
      <point x="218.0" y="0.0" type="line"/>
      <point x="218.0" y="1525.7" type="line"/>
      <point x="293.0" y="1525.7" type="line"/>
      <point x="293.0" y="567.7" type="line"/>
      <point x="860.0" y="1026.0" type="line"/>
      <point x="957.5" y="1026.0" type="line"/>
      <point x="382.0" y="551.8" type="line"/>
      <point x="1001.0" y="0.0" type="line"/>
      <point x="901.5" y="0.0" type="line"/>
      <point x="293.0" y="557.6" type="line"/>
      <point x="293.0" y="0.0" type="line"/>
    </contour>
  </outline>
</glyph>
<glyph name="o" format="1">
  <advance width="1206.5"/>
  <unicode hex="006F"/>
  <outline>
    <contour>
      <point x="616.5" y="49.2" type="curve" smooth="yes"/>
      <point x="862.5" y="49.2"/>
      <point x="1036.5" y="189.4"/>
      <point x="1036.5" y="505.1" type="curve" smooth="yes"/>
      <point x="1036.5" y="819.2"/>
      <point x="867.0" y="983.1"/>
      <point x="606.0" y="983.1" type="curve" smooth="yes"/>
      <point x="341.5" y="983.1"/>
      <point x="170.0" y="819.2"/>
      <point x="170.0" y="501.8" type="curve" smooth="yes"/>
      <point x="170.0" y="189.4"/>
      <point x="353.0" y="49.2"/>
    </contour>
    <contour>
      <point x="602.0" y="-19.7" type="curve" smooth="yes"/>
      <point x="325.0" y="-19.7"/>
      <point x="88.5" y="139.5"/>
      <point x="88.5" y="509.7" type="curve" smooth="yes"/>
      <point x="88.5" y="880.3"/>
      <point x="320.5" y="1052.0"/>
      <point x="612.5" y="1052.0" type="curve" smooth="yes"/>
      <point x="876.5" y="1052.0"/>
      <point x="1118.0" y="875.7"/>
      <point x="1118.0" y="514.3" type="curve" smooth="yes"/>
      <point x="1118.0" y="135.9"/>
      <point x="882.5" y="-19.7"/>
    </contour>
  </outline>
</glyph>
<glyph name="q" format="1">
  <advance width="1260.0"/>
  <unicode hex="0071"/>
  <outline>
    <contour>
      <point x="954.5" y="-459.4" type="line"/>
      <point x="954.5" y="263.3" type="line"/>
      <point x="953.5" y="157.0"/>
      <point x="832.0" y="-19.7"/>
      <point x="553.5" y="-19.7" type="curve" smooth="yes"/>
      <point x="333.0" y="-19.7"/>
      <point x="93.5" y="114.6"/>
      <point x="93.5" y="485.4" type="curve" smooth="yes"/>
      <point x="93.5" y="878.3"/>
      <point x="307.5" y="1052.0"/>
      <point x="570.5" y="1052.0" type="curve" smooth="yes"/>
      <point x="795.5" y="1052.0"/>
      <point x="922.0" y="943.3"/>
      <point x="953.0" y="830.8" type="curve"/>
      <point x="953.0" y="1026.0" type="line"/>
      <point x="1033.0" y="1026.0" type="line"/>
      <point x="1043.5" y="1132.0"/>
      <point x="1030.0" y="795.0"/>
      <point x="1030.0" y="893.8" type="curve" smooth="yes"/>
      <point x="1030.0" y="-459.4" type="line"/>
    </contour>
    <contour>
      <point x="550.5" y="49.2" type="curve" smooth="yes"/>
      <point x="768.5" y="49.2"/>
      <point x="938.5" y="205.9"/>
      <point x="938.5" y="564.5" type="curve" smooth="yes"/>
      <point x="938.5" y="839.0"/>
      <point x="773.0" y="983.1"/>
      <point x="575.0" y="983.1" type="curve" smooth="yes"/>
      <point x="356.0" y="983.1"/>
      <point x="175.0" y="819.2"/>
      <point x="175.0" y="498.5" type="curve" smooth="yes"/>
      <point x="175.0" y="189.4"/>
      <point x="353.5" y="49.2"/>
    </contour>
  </outline>
</glyph>
<glyph name="r" format="1">
  <advance width="890.5"/>
  <unicode hex="0072"/>
  <outline>
    <contour>
      <point x="210.5" y="0.0" type="line"/>
      <point x="210.5" y="791.1" type="line" smooth="yes"/>
      <point x="210.5" y="660.9"/>
      <point x="213.5" y="1026.0"/>
      <point x="213.5" y="1026.0" type="curve"/>
      <point x="286.0" y="1026.0" type="line"/>
      <point x="286.0" y="826.6" type="line"/>
      <point x="319.5" y="974.8"/>
      <point x="454.5" y="1048.7"/>
      <point x="581.0" y="1048.7" type="curve" smooth="yes"/>
      <point x="629.5" y="1048.7"/>
      <point x="668.0" y="1047.0"/>
      <point x="694.5" y="1040.3" type="curve"/>
      <point x="694.5" y="962.0" type="line"/>
      <point x="701.5" y="956.2"/>
      <point x="659.5" y="969.8"/>
      <point x="593.5" y="969.8" type="curve" smooth="yes"/>
      <point x="399.0" y="969.8"/>
      <point x="285.5" y="797.3"/>
      <point x="285.5" y="555.9" type="curve" smooth="yes"/>
      <point x="285.5" y="0.0" type="line"/>
    </contour>
  </outline>
</glyph>
<glyph name="t" format="1">
  <advance width="798.0"/>
  <unicode hex="0074"/>
  <outline>
    <contour>
      <point x="669.5" y="-2.3" type="line"/>
      <point x="589.0" y="-2.3" type="line" smooth="yes"/>
      <point x="202.5" y="-2.3"/>
      <point x="256.0" y="155.6"/>
      <point x="256.0" y="319.2" type="curve" smooth="yes"/>
      <point x="256.0" y="976.9" type="line"/>
      <point x="120.5" y="976.9" type="line"/>
      <point x="120.5" y="1026.0" type="line"/>
      <point x="246.5" y="1026.0" type="line"/>
      <point x="246.5" y="1330.4" type="line"/>
      <point x="333.5" y="1349.9" type="line"/>
      <point x="333.5" y="1026.0" type="line"/>
      <point x="688.0" y="1026.0" type="line"/>
      <point x="688.0" y="976.9" type="line"/>
      <point x="333.5" y="976.9" type="line"/>
      <point x="333.5" y="318.4" type="line" smooth="yes"/>
      <point x="333.5" y="109.9"/>
      <point x="436.0" y="66.5"/>
      <point x="669.5" y="66.5" type="curve"/>
    </contour>
  </outline>
</glyph>
<glyph name="y" format="1">
  <advance width="1001.0"/>
  <unicode hex="0079"/>
  <outline>
    <contour>
      <point x="136.5" y="-413.3" type="curve"/>
      <point x="111.0" y="-355.6" type="line"/>
      <point x="325.0" y="-304.4"/>
      <point x="400.5" y="-142.6"/>
      <point x="436.0" y="-58.7" type="curve" smooth="yes"/>
      <point x="457.0" y="-12.0" type="line"/>
      <point x="67.0" y="1026.0" type="line"/>
      <point x="144.0" y="1026.0" type="line"/>
      <point x="497.5" y="66.1" type="line"/>
      <point x="866.5" y="1026.0" type="line"/>
      <point x="935.0" y="1026.0" type="line"/>
      <point x="522.5" y="-52.7" type="line"/>
      <point x="472.5" y="-186.2"/>
      <point x="378.5" y="-371.2"/>
    </contour>
  </outline>
</glyph>
<glyph name="braceleft" format="1">
  <advance width="963.0"/>
  <unicode hex="007B"/>
  <outline>
    <contour>
      <point x="782.0" y="-355.1" type="line"/>
      <point x="770.5" y="-338.6"/>
      <point x="400.0" y="-353.3"/>
      <point x="400.0" y="-180.6" type="curve" smooth="yes"/>
      <point x="400.0" y="136.7" type="line" smooth="yes"/>
      <point x="400.0" y="231.9"/>
      <point x="330.5" y="437.6"/>
      <point x="112.0" y="473.9" type="curve"/>
      <point x="112.0" y="542.9" type="line"/>
      <point x="245.0" y="566.0"/>
      <point x="395.5" y="692.3"/>
      <point x="399.0" y="845.6" type="curve" smooth="yes"/>
      <point x="399.0" y="1138.2" type="line" smooth="yes"/>
      <point x="399.0" y="1330.9"/>
      <point x="652.5" y="1377.8"/>
      <point x="778.0" y="1377.8" type="curve"/>
      <point x="778.0" y="1320.5" type="line"/>
      <point x="717.0" y="1313.9"/>
      <point x="467.0" y="1341.0"/>
      <point x="467.0" y="1239.2" type="curve" smooth="yes"/>
      <point x="467.0" y="883.8" type="line" smooth="yes"/>
      <point x="467.0" y="656.8"/>
      <point x="321.0" y="546.6"/>
      <point x="144.0" y="516.9" type="curve"/>
      <point x="354.5" y="480.8"/>
      <point x="467.0" y="249.9"/>
      <point x="467.0" y="228.6" type="curve" smooth="yes"/>
      <point x="467.0" y="68.5" type="line" smooth="yes"/>
      <point x="467.0" y="-190.8"/>
      <point x="594.0" y="-297.8"/>
      <point x="782.0" y="-295.5" type="curve"/>
    </contour>
  </outline>
</glyph>
<glyph name="bar" format="1">
  <advance width="1929.0"/>
  <unicode hex="007C"/>
  <outline>
    <contour>
      <point x="929.0" y="-526.0" type="line"/>
      <point x="929.0" y="1581.3" type="line"/>
      <point x="1000.0" y="1581.3" type="line"/>
      <point x="1000.0" y="-526.0" type="line"/>
    </contour>
  </outline>
</glyph>
<glyph name="cent" format="1">
  <advance width="948.0"/>
  <unicode hex="00A2"/>
  <outline>
    <contour>
      <point x="559.0" y="-166.7" type="line"/>
      <point x="559.0" y="1253.3" type="line"/>
      <point x="626.5" y="1253.3" type="line"/>
      <point x="626.5" y="-166.7" type="line"/>
    </contour>
    <component base="c"/>
  </outline>
</glyph>
<glyph name="sterling" format="1">
  <advance width="1112.0"/>
  <unicode hex="00A3"/>
  <outline>
    <contour>
      <point x="145.5" y="0.0" type="line"/>
      <point x="145.5" y="89.9" type="line"/>
      <point x="310.5" y="179.4"/>
      <point x="323.5" y="470.3"/>
      <point x="323.5" y="540.1" type="curve" smooth="yes"/>
      <point x="323.5" y="723.7" type="line"/>
      <point x="120.0" y="723.7" type="line"/>
      <point x="120.0" y="781.9" type="line"/>
      <point x="324.0" y="781.9" type="line"/>
      <point x="324.0" y="1019.8" type="line" smooth="yes"/>
      <point x="324.0" y="1286.0"/>
      <point x="435.0" y="1473.1"/>
      <point x="700.5" y="1473.1" type="curve" smooth="yes"/>
      <point x="852.5" y="1473.1"/>
      <point x="935.5" y="1420.4"/>
      <point x="925.5" y="1396.8" type="curve"/>
      <point x="894.5" y="1340.2" type="line"/>
      <point x="926.0" y="1346.5"/>
      <point x="811.5" y="1402.2"/>
      <point x="686.0" y="1392.3" type="curve" smooth="yes"/>
      <point x="463.5" y="1375.8"/>
      <point x="405.5" y="1208.2"/>
      <point x="405.5" y="1037.5" type="curve" smooth="yes"/>
      <point x="405.5" y="781.9" type="line"/>
      <point x="808.0" y="781.9" type="line"/>
      <point x="808.0" y="723.7" type="line"/>
      <point x="409.0" y="723.7" type="line"/>
      <point x="409.0" y="542.7" type="line" smooth="yes"/>
      <point x="409.0" y="243.8"/>
      <point x="273.0" y="85.6"/>
      <point x="239.0" y="79.5" type="curve"/>
      <point x="950.5" y="79.5" type="line"/>
      <point x="950.5" y="0.0" type="line"/>
    </contour>
  </outline>
</glyph>
<glyph name="currency" format="1">
  <advance width="1218.0"/>
  <unicode hex="00A4"/>
  <outline>
    <contour>
      <point x="1048.0" y="546.3" type="line"/>
      <point x="862.0" y="732.3" type="line"/>
      <point x="794.0" y="676.3"/>
      <point x="706.0" y="642.3"/>
      <point x="610.0" y="642.3" type="curve" smooth="yes"/>
      <point x="514.0" y="642.3"/>
      <point x="426.0" y="676.3"/>
      <point x="358.0" y="733.3" type="curve"/>
      <point x="171.0" y="546.3" type="line"/>
      <point x="120.0" y="597.3" type="line"/>
      <point x="307.0" y="784.3" type="line"/>
      <point x="252.0" y="850.3"/>
      <point x="219.0" y="934.3"/>
      <point x="219.0" y="1027.3" type="curve" smooth="yes"/>
      <point x="219.0" y="1124.3"/>
      <point x="255.0" y="1212.3"/>
      <point x="314.0" y="1279.3" type="curve"/>
      <point x="119.0" y="1474.3" type="line"/>
      <point x="170.0" y="1525.3" type="line"/>
      <point x="367.0" y="1329.3" type="line"/>
      <point x="433.0" y="1381.3"/>
      <point x="518.0" y="1412.3"/>
      <point x="610.0" y="1412.3" type="curve" smooth="yes"/>
      <point x="702.0" y="1412.3"/>
      <point x="786.0" y="1381.3"/>
      <point x="853.0" y="1330.3" type="curve"/>
      <point x="1048.0" y="1525.3" type="line"/>
      <point x="1099.0" y="1474.3" type="line"/>
      <point x="906.0" y="1281.3" type="line"/>
      <point x="966.0" y="1213.3"/>
      <point x="1002.0" y="1125.3"/>
      <point x="1002.0" y="1027.3" type="curve" smooth="yes"/>
      <point x="1002.0" y="934.3"/>
      <point x="969.0" y="849.3"/>
      <point x="913.0" y="782.3" type="curve"/>
      <point x="1099.0" y="597.3" type="line"/>
    </contour>
    <contour>
      <point x="609.0" y="713.3" type="curve" smooth="yes"/>
      <point x="783.0" y="713.3"/>
      <point x="911.0" y="856.9"/>
      <point x="911.0" y="1030.9" type="curve" smooth="yes"/>
      <point x="911.0" y="1204.9"/>
      <point x="783.0" y="1334.3"/>
      <point x="609.0" y="1334.3" type="curve" smooth="yes"/>
      <point x="435.0" y="1334.3"/>
      <point x="307.0" y="1204.9"/>
      <point x="307.0" y="1030.9" type="curve" smooth="yes"/>
      <point x="307.0" y="856.9"/>
      <point x="435.0" y="713.3"/>
    </contour>
  </outline>
</glyph>
<glyph name="brokenbar" format="1">
  <advance width="500.0"/>
  <unicode hex="00A6"/>
  <outline>
    <contour>
      <point x="224.5" y="-526.0" type="line"/>
      <point x="224.5" y="372.4" type="line"/>
      <point x="294.0" y="372.4" type="line"/>
      <point x="294.0" y="-526.0" type="line"/>
    </contour>
    <contour>
      <point x="229.5" y="785.6" type="line"/>
      <point x="229.5" y="1581.3" type="line"/>
      <point x="295.5" y="1581.3" type="line"/>
      <point x="295.5" y="785.6" type="line"/>
    </contour>
  </outline>
</glyph>
<glyph name="section" format="1">
  <advance width="1006.0"/>
  <unicode hex="00A7"/>
  <outline>
    <contour>
      <point x="588.0" y="452.6" type="curve"/>
      <point x="706.5" y="508.3"/>
      <point x="810.0" y="614.9"/>
      <point x="810.0" y="727.6" type="curve" smooth="yes"/>
      <point x="810.0" y="879.6"/>
      <point x="538.0" y="927.0"/>
      <point x="500.5" y="958.9" type="curve"/>
      <point x="373.5" y="892.1"/>
      <point x="241.5" y="819.7"/>
      <point x="241.5" y="715.5" type="curve" smooth="yes"/>
      <point x="241.5" y="587.4"/>
      <point x="464.0" y="500.1"/>
    </contour>
    <contour>
      <point x="455.0" y="-97.0" type="curve" smooth="yes"/>
      <point x="383.0" y="-97.0"/>
      <point x="277.0" y="-86.9"/>
      <point x="226.0" y="-56.8" type="curve"/>
      <point x="222.5" y="2.6" type="line"/>
      <point x="326.0" y="-51.9"/>
      <point x="408.0" y="-60.1"/>
      <point x="461.5" y="-60.1" type="curve" smooth="yes"/>
      <point x="678.5" y="-60.1"/>
      <point x="773.5" y="74.6"/>
      <point x="773.5" y="167.5" type="curve"/>
      <point x="777.0" y="313.9"/>
      <point x="633.0" y="376.9"/>
      <point x="459.5" y="448.6" type="curve" smooth="yes"/>
      <point x="295.5" y="518.5"/>
      <point x="210.0" y="577.5"/>
      <point x="210.0" y="715.3" type="curve" smooth="yes"/>
      <point x="210.0" y="849.9"/>
      <point x="346.0" y="941.5"/>
      <point x="490.5" y="963.5" type="curve"/>
      <point x="370.5" y="1025.8"/>
      <point x="240.0" y="1112.3"/>
      <point x="240.0" y="1239.1" type="curve" smooth="yes"/>
      <point x="240.0" y="1403.5"/>
      <point x="406.5" y="1504.1"/>
      <point x="614.0" y="1504.1" type="curve" smooth="yes"/>
      <point x="690.5" y="1504.1"/>
      <point x="706.5" y="1489.1"/>
      <point x="766.5" y="1473.6" type="curve"/>
      <point x="766.5" y="1398.8" type="line"/>
      <point x="699.5" y="1443.5"/>
      <point x="587.0" y="1449.5"/>
      <point x="563.0" y="1449.5" type="curve" smooth="yes"/>
      <point x="396.5" y="1449.5"/>
      <point x="287.5" y="1358.1"/>
      <point x="287.5" y="1232.3" type="curve" smooth="yes"/>
      <point x="287.5" y="1133.0"/>
      <point x="319.0" y="1080.3"/>
      <point x="519.0" y="1001.1" type="curve"/>
      <point x="703.0" y="939.0"/>
      <point x="822.0" y="857.1"/>
      <point x="822.0" y="718.7" type="curve" smooth="yes"/>
      <point x="822.0" y="590.7"/>
      <point x="716.0" y="500.5"/>
      <point x="599.0" y="446.4" type="curve"/>
      <point x="714.0" y="393.8"/>
      <point x="817.5" y="309.2"/>
      <point x="817.5" y="180.1" type="curve" smooth="yes"/>
      <point x="817.5" y="14.9"/>
      <point x="655.5" y="-97.0"/>
    </contour>
  </outline>
</glyph>
<glyph name="dieresis" format="1">
  <advance width="743.0"/>
  <unicode hex="00A8"/>
  <outline>
    <contour>
      <point x="179.5" y="1341.9" type="line"/>
      <point x="179.5" y="1505.8" type="line"/>
      <point x="268.5" y="1505.8" type="line"/>
      <point x="268.5" y="1341.9" type="line"/>
    </contour>
    <contour>
      <point x="479.5" y="1341.9" type="line"/>
      <point x="479.5" y="1505.8" type="line"/>
      <point x="571.0" y="1505.8" type="line"/>
      <point x="571.0" y="1341.9" type="line"/>
    </contour>
  </outline>
</glyph>
<glyph name="ordfeminine" format="1">
  <advance width="657.0"/>
  <unicode hex="00AA"/>
  <outline>
    <contour>
      <point x="306.5" y="814.8" type="curve" smooth="yes"/>
      <point x="372.0" y="814.8"/>
      <point x="467.5" y="828.4"/>
      <point x="526.0" y="907.5" type="curve"/>
      <point x="520.0" y="819.4" type="line"/>
      <point x="595.0" y="819.4" type="line"/>
      <point x="585.0" y="963.9"/>
      <point x="588.0" y="1002.4"/>
      <point x="589.5" y="919.9" type="curve" smooth="yes"/>
      <point x="592.0" y="848.9"/>
      <point x="598.0" y="1445.7"/>
      <point x="598.0" y="1285.4" type="curve" smooth="yes"/>
      <point x="598.0" y="1411.3"/>
      <point x="493.0" y="1478.0"/>
      <point x="361.0" y="1478.0" type="curve" smooth="yes"/>
      <point x="229.0" y="1478.0"/>
      <point x="111.5" y="1412.3"/>
      <point x="111.5" y="1412.3" type="curve"/>
      <point x="124.5" y="1363.1" type="line"/>
      <point x="124.5" y="1363.1"/>
      <point x="228.0" y="1419.4"/>
      <point x="372.5" y="1419.4" type="curve" smooth="yes"/>
      <point x="523.0" y="1419.4"/>
      <point x="539.5" y="1353.4"/>
      <point x="539.5" y="1217.8" type="curve" smooth="yes"/>
      <point x="539.5" y="1207.5" type="line"/>
      <point x="369.5" y="1207.5" type="line" smooth="yes"/>
      <point x="164.0" y="1207.5"/>
      <point x="62.0" y="1128.5"/>
      <point x="62.0" y="1012.3" type="curve" smooth="yes"/>
      <point x="62.0" y="904.3"/>
      <point x="145.5" y="814.8"/>
    </contour>
    <contour>
      <point x="324.0" y="883.7" type="curve" smooth="yes"/>
      <point x="203.5" y="883.7"/>
      <point x="147.0" y="929.9"/>
      <point x="147.0" y="1023.2" type="curve" smooth="yes"/>
      <point x="147.0" y="1163.5"/>
      <point x="309.5" y="1152.0"/>
      <point x="541.0" y="1152.0" type="curve"/>
      <point x="541.0" y="1154.3"/>
      <point x="541.0" y="1113.9"/>
      <point x="541.0" y="1116.2" type="curve" smooth="yes"/>
      <point x="541.0" y="1023.5"/>
      <point x="524.0" y="883.7"/>
    </contour>
  </outline>
</glyph>
<glyph name="guillemotleft" format="1">
  <advance width="1012.0"/>
  <unicode hex="00AB"/>
  <outline>
    <contour>
      <point x="366.5" y="189.7" type="line"/>
      <point x="108.0" y="547.6" type="line"/>
      <point x="369.0" y="911.1" type="line"/>
      <point x="467.5" y="911.1" type="line"/>
      <point x="203.0" y="549.9" type="line"/>
      <point x="459.5" y="189.7" type="line"/>
    </contour>
    <contour>
      <point x="777.5" y="189.7" type="line"/>
      <point x="515.5" y="547.6" type="line"/>
      <point x="780.0" y="911.1" type="line"/>
      <point x="878.5" y="911.1" type="line"/>
      <point x="610.5" y="549.9" type="line"/>
      <point x="870.5" y="189.7" type="line"/>
    </contour>
  </outline>
</glyph>
<glyph name="logicalnot" format="1">
  <advance width="1475.5"/>
  <unicode hex="00AC"/>
  <outline>
    <contour>
      <point x="1228.0" y="256.0" type="line"/>
      <point x="1228.0" y="708.4" type="line"/>
      <point x="256.5" y="708.4" type="line"/>
      <point x="256.5" y="782.3" type="line"/>
      <point x="1288.0" y="782.3" type="line"/>
      <point x="1288.0" y="256.0" type="line"/>
    </contour>
  </outline>
</glyph>
<glyph name="acute" format="1">
  <advance width="607.0"/>
  <unicode hex="00B4"/>
  <outline>
    <contour>
      <point x="132.5" y="1187.8" type="line"/>
      <point x="318.0" y="1826.2" type="line"/>
      <point x="414.5" y="1826.2" type="line"/>
      <point x="157.5" y="1187.8" type="line"/>
    </contour>
  </outline>
</glyph>
<glyph name="periodcentered" format="1">
  <advance width="284.0"/>
  <unicode hex="00B7"/>
  <outline>
    <contour>
      <point x="72.5" y="474.4" type="line"/>
      <point x="72.5" y="624.2" type="line"/>
      <point x="211.5" y="624.2" type="line"/>
      <point x="211.5" y="474.4" type="line"/>
    </contour>
  </outline>
</glyph>
<glyph name="cedilla" format="1">
  <advance width="529.0"/>
  <unicode hex="00B8"/>
  <outline>
    <contour>
      <point x="100.5" y="-534.9" type="curve"/>
      <point x="111.0" y="-487.5" type="line"/>
      <point x="171.0" y="-505.4"/>
      <point x="145.5" y="-497.7"/>
      <point x="184.0" y="-497.7" type="curve" smooth="yes"/>
      <point x="238.5" y="-497.7"/>
      <point x="356.0" y="-501.6"/>
      <point x="356.0" y="-385.8" type="curve" smooth="yes"/>
      <point x="356.0" y="-328.4"/>
      <point x="294.5" y="-255.6"/>
      <point x="177.0" y="-255.6" type="curve" smooth="yes"/>
      <point x="174.0" y="-255.6" type="line"/>
      <point x="212.0" y="1.3" type="line"/>
      <point x="257.5" y="1.3" type="line"/>
      <point x="236.0" y="-194.8" type="line"/>
      <point x="308.0" y="-199.6"/>
      <point x="425.0" y="-254.1"/>
      <point x="425.0" y="-390.8" type="curve" smooth="yes"/>
      <point x="425.0" y="-585.4"/>
      <point x="170.0" y="-550.7"/>
      <point x="216.0" y="-550.7" type="curve" smooth="yes"/>
      <point x="145.0" y="-550.7"/>
      <point x="240.5" y="-576.2"/>
    </contour>
  </outline>
</glyph>
<glyph name="ordmasculine" format="1">
  <advance width="834.5"/>
  <unicode hex="00BA"/>
  <outline>
    <contour>
      <point x="427.0" y="893.8" type="curve" smooth="yes"/>
      <point x="582.5" y="893.8"/>
      <point x="673.5" y="995.6"/>
      <point x="673.5" y="1156.9" type="curve" smooth="yes"/>
      <point x="673.5" y="1322.9"/>
      <point x="582.5" y="1428.3"/>
      <point x="417.5" y="1428.3" type="curve" smooth="yes"/>
      <point x="260.5" y="1428.3"/>
      <point x="172.5" y="1326.5"/>
      <point x="172.5" y="1163.2" type="curve" smooth="yes"/>
      <point x="172.5" y="995.9"/>
      <point x="259.5" y="893.8"/>
    </contour>
    <contour>
      <point x="419.5" y="822.3" type="curve" smooth="yes"/>
      <point x="198.0" y="822.3"/>
      <point x="84.5" y="977.0"/>
      <point x="84.5" y="1168.5" type="curve" smooth="yes"/>
      <point x="84.5" y="1360.6"/>
      <point x="203.5" y="1509.7"/>
      <point x="420.0" y="1509.7" type="curve" smooth="yes"/>
      <point x="642.0" y="1509.7"/>
      <point x="753.5" y="1359.9"/>
      <point x="753.5" y="1164.5" type="curve" smooth="yes"/>
      <point x="753.5" y="976.4"/>
      <point x="637.0" y="822.3"/>
    </contour>
  </outline>
</glyph>
<glyph name="guillemotright" format="1">
  <advance width="1012.0"/>
  <unicode hex="00BB"/>
  <outline>
    <contour>
      <point x="620.0" y="904.5" type="line"/>
      <point x="878.5" y="549.9" type="line"/>
      <point x="614.0" y="183.1" type="line"/>
      <point x="519.0" y="183.1" type="line"/>
      <point x="783.5" y="547.6" type="line"/>
      <point x="527.0" y="904.5" type="line"/>
    </contour>
    <contour>
      <point x="209.0" y="904.5" type="line"/>
      <point x="471.0" y="549.9" type="line"/>
      <point x="206.5" y="183.1" type="line"/>
      <point x="108.0" y="183.1" type="line"/>
      <point x="372.5" y="547.6" type="line"/>
      <point x="116.0" y="904.5" type="line"/>
    </contour>
  </outline>
</glyph>
<glyph name="AE" format="1">
  <advance width="1790.5"/>
  <unicode hex="00C6"/>
  <outline>
    <contour>
      <point x="37.5" y="0.0" type="line"/>
      <point x="869.0" y="1456.0" type="line"/>
      <point x="1740.5" y="1456.0" type="line"/>
      <point x="1740.5" y="1393.8" type="line"/>
      <point x="993.5" y="1393.8" type="line"/>
      <point x="1042.5" y="786.3" type="line"/>
      <point x="1655.5" y="786.3" type="line"/>
      <point x="1655.5" y="733.4" type="line"/>
      <point x="1037.0" y="733.4" type="line"/>
      <point x="1098.0" y="58.9" type="line"/>
      <point x="1763.0" y="58.9" type="line"/>
      <point x="1763.0" y="0.0" type="line"/>
      <point x="1068.5" y="0.0" type="line"/>
      <point x="1021.0" y="476.2" type="line"/>
      <point x="358.5" y="476.2" type="line"/>
      <point x="85.0" y="0.0" type="line"/>
    </contour>
    <contour>
      <point x="380.5" y="532.9" type="line"/>
      <point x="1014.5" y="532.9" type="line"/>
      <point x="944.5" y="1393.8" type="line"/>
      <point x="870.0" y="1393.8" type="line"/>
    </contour>
  </outline>
</glyph>
<glyph name="Eth" format="1">
  <advance width="1505.0"/>
  <unicode hex="00D0"/>
  <outline>
    <contour>
      <point x="-16.0" y="854.4" type="line"/>
      <point x="800.5" y="854.4" type="line"/>
      <point x="800.5" y="742.5" type="line"/>
      <point x="-16.0" y="742.5" type="line"/>
    </contour>
    <component base="D"/>
  </outline>
</glyph>
<glyph name="multiply" format="1">
  <advance width="1159.0"/>
  <unicode hex="00D7"/>
  <outline>
    <contour>
      <point x="250.5" y="191.3" type="line"/>
      <point x="213.0" y="235.4" type="line"/>
      <point x="538.5" y="561.2" type="line"/>
      <point x="213.0" y="883.7" type="line"/>
      <point x="250.5" y="931.1" type="line"/>
      <point x="579.5" y="605.3" type="line"/>
      <point x="902.5" y="931.1" type="line"/>
      <point x="946.0" y="881.4" type="line"/>
      <point x="619.5" y="561.2" type="line"/>
      <point x="946.0" y="241.0" type="line"/>
      <point x="902.5" y="191.3" type="line"/>
      <point x="579.5" y="513.8" type="line"/>
    </contour>
  </outline>
</glyph>
<glyph name="Oslash" format="1">
  <advance width="1663.0"/>
  <unicode hex="00D8"/>
  <outline>
    <contour>
      <point x="399.0" y="-117.1" type="line"/>
      <point x="344.0" y="-71.7" type="line"/>
      <point x="1171.5" y="1532.4" type="line"/>
      <point x="1226.5" y="1483.7" type="line"/>
    </contour>
    <component base="O"/>
  </outline>
</glyph>
<glyph name="Thorn" format="1">
  <advance width="1243.5"/>
  <unicode hex="00DE"/>
  <outline>
    <contour>
      <point x="216.5" y="0.0" type="line"/>
      <point x="216.5" y="1456.0" type="line"/>
      <point x="300.0" y="1456.0" type="line"/>
      <point x="300.0" y="1210.1" type="line"/>
      <point x="556.5" y="1210.1" type="line" smooth="yes"/>
      <point x="892.5" y="1210.1"/>
      <point x="1176.0" y="1128.5"/>
      <point x="1176.0" y="783.9" type="curve" smooth="yes"/>
      <point x="1176.0" y="488.4"/>
      <point x="965.0" y="364.0"/>
      <point x="647.0" y="364.0" type="curve" smooth="yes"/>
      <point x="305.0" y="364.0" type="line"/>
      <point x="305.0" y="0.0" type="line"/>
    </contour>
    <contour>
      <point x="305.0" y="445.6" type="line"/>
      <point x="624.0" y="445.6" type="line" smooth="yes"/>
      <point x="888.5" y="445.6"/>
      <point x="1091.0" y="549.6"/>
      <point x="1091.0" y="780.6" type="curve" smooth="yes"/>
      <point x="1091.0" y="1055.8"/>
      <point x="873.5" y="1127.2"/>
      <point x="572.0" y="1127.2" type="curve" smooth="yes"/>
      <point x="305.0" y="1127.2" type="line"/>
    </contour>
  </outline>
</glyph>
<glyph name="divide" format="1">
  <advance width="912.0"/>
  <unicode hex="00F7"/>
  <outline>
    <contour>
      <point x="439.0" y="59.6" type="line"/>
      <point x="562.5" y="59.6" type="line"/>
      <point x="565.0" y="210.4" type="line"/>
      <point x="439.0" y="210.4" type="line"/>
    </contour>
    <contour>
      <point x="120.5" y="520.0" type="line"/>
      <point x="872.0" y="520.0" type="line"/>
      <point x="872.0" y="591.6" type="line"/>
      <point x="120.5" y="591.6" type="line"/>
    </contour>
    <contour>
      <point x="439.5" y="904.4" type="line"/>
      <point x="569.0" y="904.4" type="line"/>
      <point x="569.0" y="1054.2" type="line"/>
      <point x="439.5" y="1054.2" type="line"/>
    </contour>
  </outline>
</glyph>
<glyph name="thorn" format="1">
  <advance width="1247.5"/>
  <unicode hex="00FE"/>
  <outline>
    <contour>
      <point x="178.0" y="-459.4" type="line"/>
      <point x="178.0" y="1446.5" type="line"/>
      <point x="268.5" y="1446.5" type="line"/>
      <point x="270.0" y="826.4" type="line"/>
      <point x="385.0" y="979.6"/>
      <point x="492.5" y="1051.0"/>
      <point x="689.5" y="1051.0" type="curve" smooth="yes"/>
      <point x="1018.0" y="1051.0"/>
      <point x="1151.0" y="814.6"/>
      <point x="1151.0" y="528.3" type="curve" smooth="yes"/>
      <point x="1151.0" y="236.7"/>
      <point x="996.5" y="-23.0"/>
      <point x="692.0" y="-23.0" type="curve" smooth="yes"/>
      <point x="501.0" y="-23.0"/>
      <point x="374.5" y="44.4"/>
      <point x="268.0" y="197.8" type="curve"/>
      <point x="270.5" y="-459.4" type="line"/>
    </contour>
    <contour>
      <point x="671.0" y="41.6" type="curve" smooth="yes"/>
      <point x="948.5" y="41.6"/>
      <point x="1067.5" y="269.0"/>
      <point x="1067.5" y="521.0" type="curve" smooth="yes"/>
      <point x="1067.5" y="758.7"/>
      <point x="967.0" y="984.4"/>
      <point x="675.5" y="984.4" type="curve" smooth="yes"/>
      <point x="370.0" y="984.4"/>
      <point x="268.0" y="747.7"/>
      <point x="268.0" y="494.0" type="curve" smooth="yes"/>
      <point x="268.0" y="236.7"/>
      <point x="411.0" y="41.6"/>
    </contour>
  </outline>
</glyph>
<glyph name="kgreenlandic" format="1">
  <advance width="1082.0"/>
  <unicode hex="0138"/>
  <outline>
    <contour>
      <point x="213.0" y="0.0" type="line"/>
      <point x="213.0" y="1026.0" type="line"/>
      <point x="290.5" y="1026.0" type="line"/>
      <point x="290.5" y="486.0" type="line"/>
      <point x="875.0" y="1026.0" type="line"/>
      <point x="979.0" y="1026.0" type="line"/>
      <point x="430.0" y="515.6" type="line"/>
      <point x="442.5" y="491.5"/>
      <point x="1046.0" y="-2.4"/>
      <point x="1021.0" y="0.0" type="curve"/>
      <point x="921.5" y="0.0" type="line"/>
      <point x="290.5" y="554.1" type="line"/>
      <point x="290.5" y="0.0" type="line"/>
    </contour>
  </outline>
</glyph>
<glyph name="OE" format="1">
  <advance width="2034.0"/>
  <unicode hex="0152"/>
  <outline>
    <contour>
      <point x="781.0" y="-20.7" type="curve" smooth="yes"/>
      <point x="270.0" y="-32.7"/>
      <point x="109.5" y="342.0"/>
      <point x="109.5" y="727.7" type="curve" smooth="yes"/>
      <point x="109.5" y="1134.6"/>
      <point x="350.5" y="1519.5"/>
      <point x="887.0" y="1485.3" type="curve"/>
      <point x="902.0" y="1470.2"/>
      <point x="1073.5" y="1494.0"/>
      <point x="1213.5" y="1363.0" type="curve"/>
      <point x="1213.5" y="1456.0" type="line"/>
      <point x="1981.5" y="1456.0" type="line"/>
      <point x="1981.5" y="1374.4" type="line"/>
      <point x="1298.0" y="1374.4" type="line"/>
      <point x="1298.0" y="786.3" type="line"/>
      <point x="1941.0" y="786.3" type="line"/>
      <point x="1941.0" y="707.0" type="line"/>
      <point x="1293.0" y="707.0" type="line"/>
      <point x="1293.0" y="81.6" type="line"/>
      <point x="2014.0" y="81.6" type="line"/>
      <point x="2014.0" y="0.0" type="line"/>
      <point x="1213.5" y="0.0" type="line"/>
      <point x="1213.5" y="144.9" type="line"/>
      <point x="1025.0" y="-23.4"/>
      <point x="898.5" y="-19.0"/>
    </contour>
    <contour>
      <point x="799.0" y="77.9" type="curve" smooth="yes"/>
      <point x="891.5" y="87.8"/>
      <point x="1048.0" y="97.9"/>
      <point x="1213.5" y="279.4" type="curve"/>
      <point x="1213.5" y="1247.8" type="line"/>
      <point x="1137.5" y="1335.0"/>
      <point x="1002.0" y="1388.0"/>
      <point x="848.0" y="1403.7" type="curve"/>
      <point x="335.0" y="1425.3"/>
      <point x="195.5" y="990.1"/>
      <point x="195.5" y="725.0" type="curve" smooth="yes"/>
      <point x="195.5" y="418.8"/>
      <point x="356.0" y="58.1"/>
    </contour>
  </outline>
</glyph>
<glyph name="tbar" format="1">
  <advance width="637.5"/>
  <unicode hex="0167"/>
  <outline>
    <contour>
      <point x="-2.5" y="718.6" type="line"/>
      <point x="-2.5" y="767.5" type="line"/>
      <point x="642.5" y="767.5" type="line"/>
      <point x="642.5" y="718.6" type="line"/>
    </contour>
    <component base="t"/>
  </outline>
</glyph>
<glyph name="ring" format="1">
  <advance width="500.5"/>
  <unicode hex="02DA"/>
  <outline>
    <contour>
      <point x="248.5" y="1422.2" type="curve" smooth="yes"/>
      <point x="307.5" y="1422.2"/>
      <point x="355.5" y="1370.9"/>
      <point x="355.5" y="1310.9" type="curve" smooth="yes"/>
      <point x="355.5" y="1247.6"/>
      <point x="307.5" y="1198.6"/>
      <point x="248.5" y="1198.6" type="curve" smooth="yes"/>
      <point x="187.0" y="1198.6"/>
      <point x="142.5" y="1247.6"/>
      <point x="142.5" y="1310.9" type="curve" smooth="yes"/>
      <point x="142.5" y="1370.9"/>
      <point x="187.0" y="1422.2"/>
    </contour>
    <contour>
      <point x="255.5" y="1478.0" type="curve" smooth="yes"/>
      <point x="163.5" y="1478.0"/>
      <point x="87.5" y="1406.5"/>
      <point x="87.5" y="1310.9" type="curve" smooth="yes"/>
      <point x="87.5" y="1213.0"/>
      <point x="163.5" y="1140.5"/>
      <point x="255.5" y="1140.5" type="curve" smooth="yes"/>
      <point x="346.5" y="1140.5"/>
      <point x="420.0" y="1213.0"/>
      <point x="420.0" y="1310.9" type="curve" smooth="yes"/>
      <point x="420.0" y="1406.5"/>
      <point x="346.5" y="1478.0"/>
    </contour>
  </outline>
</glyph>
<glyph name="ogonek" format="1">
  <advance width="508.0"/>
  <unicode hex="02DB"/>
  <outline>
    <contour>
      <point x="75.0" y="-330.7" type="curve" smooth="yes"/>
      <point x="75.0" y="-272.2"/>
      <point x="112.5" y="-66.2"/>
      <point x="259.0" y="3.5" type="curve"/>
      <point x="296.0" y="-22.9" type="line"/>
      <point x="237.819" y="-84.49868"/>
      <point x="71.1705" y="-268.1667"/>
      <point x="71.1705" y="-404.119" type="curve" smooth="yes"/>
      <point x="71.1705" y="-469.9879"/>
      <point x="107.5155" y="-557.8319"/>
      <point x="325.8805" y="-557.8319" type="curve" smooth="yes"/>
      <point x="328.729" y="-557.8319"/>
      <point x="306.5135" y="-591.1131"/>
      <point x="394.5" y="-568.9" type="curve"/>
      <point x="394.5" y="-592.4" type="line"/>
      <point x="412.873" y="-595.6893"/>
      <point x="403.9235" y="-599.5022"/>
      <point x="373.206" y="-599.5022" type="curve" smooth="yes"/>
      <point x="248.7075" y="-599.5022"/>
      <point x="75.0" y="-522.9281"/>
    </contour>
  </outline>
</glyph>
<glyph name="tilde" format="1">
  <advance width="539.5"/>
  <unicode hex="02DC"/>
  <outline>
    <contour>
      <point x="21.0" y="1242.7" type="line"/>
      <point x="21.0" y="1336.1"/>
      <point x="53.5" y="1395.0"/>
      <point x="148.0" y="1395.0" type="curve" smooth="yes"/>
      <point x="214.0" y="1395.0"/>
      <point x="332.0" y="1299.3"/>
      <point x="433.0" y="1306.5" type="curve" smooth="yes"/>
      <point x="484.5" y="1312.4"/>
      <point x="451.0" y="1380.5"/>
      <point x="468.5" y="1395.0" type="curve"/>
      <point x="518.5" y="1395.0" type="line"/>
      <point x="518.5" y="1334.0"/>
      <point x="507.0" y="1217.9"/>
      <point x="413.5" y="1237.7" type="curve" smooth="yes"/>
      <point x="353.5" y="1250.9"/>
      <point x="242.0" y="1323.9"/>
      <point x="151.0" y="1323.9" type="curve" smooth="yes"/>
      <point x="66.0" y="1323.9"/>
      <point x="71.5" y="1280.4"/>
      <point x="64.5" y="1242.7" type="curve"/>
    </contour>
  </outline>
</glyph>
<glyph name="Omega" format="1">
  <advance width="1603.0"/>
  <unicode hex="03A9"/>
  <outline>
    <contour>
      <point x="133.5" y="0.0" type="line"/>
      <point x="165.5" y="70.6" type="line"/>
      <point x="564.0" y="71.9" type="line"/>
      <point x="324.5" y="207.3"/>
      <point x="149.0" y="414.9"/>
      <point x="149.0" y="735.1" type="curve" smooth="yes"/>
      <point x="149.0" y="1146.4"/>
      <point x="447.0" y="1414.0"/>
      <point x="841.0" y="1414.0" type="curve" smooth="yes"/>
      <point x="1250.0" y="1414.0"/>
      <point x="1502.5" y="1121.0"/>
      <point x="1502.5" y="738.3" type="curve" smooth="yes"/>
      <point x="1502.5" y="409.8"/>
      <point x="1283.0" y="207.2"/>
      <point x="1084.0" y="71.9" type="curve"/>
      <point x="980.5" y="71.9"/>
      <point x="1615.5" y="70.6"/>
      <point x="1515.0" y="70.6" type="curve"/>
      <point x="1518.5" y="0.0" type="line"/>
      <point x="1040.5" y="0.0" type="line"/>
      <point x="1041.5" y="73.9" type="line"/>
      <point x="1261.5" y="215.8"/>
      <point x="1421.0" y="410.7"/>
      <point x="1421.0" y="713.1" type="curve" smooth="yes"/>
      <point x="1421.0" y="1046.4"/>
      <point x="1224.5" y="1341.4"/>
      <point x="832.0" y="1341.4" type="curve" smooth="yes"/>
      <point x="476.5" y="1341.4"/>
      <point x="231.5" y="1093.2"/>
      <point x="231.5" y="722.7" type="curve" smooth="yes"/>
      <point x="231.5" y="420.3"/>
      <point x="383.0" y="217.4"/>
      <point x="608.5" y="73.9" type="curve"/>
      <point x="610.0" y="0.0" type="line"/>
    </contour>
  </outline>
</glyph>
<glyph name="emdash" format="1">
  <advance width="2171.0"/>
  <unicode hex="2014"/>
  <outline>
    <contour>
      <point x="37.0" y="524.0" type="line"/>
      <point x="37.0" y="593.6" type="line"/>
      <point x="2134.0" y="593.6" type="line"/>
      <point x="2134.0" y="524.0" type="line"/>
    </contour>
  </outline>
</glyph>
<glyph name="uni2015" format="1">
  <advance width="4103.0"/>
  <unicode hex="2015"/>
  <outline>
    <contour>
      <point x="77.0" y="524.0" type="line"/>
      <point x="77.0" y="612.6" type="line"/>
      <point x="4026.0" y="612.6" type="line"/>
      <point x="4026.0" y="524.0" type="line"/>
    </contour>
  </outline>
</glyph>
<glyph name="quoteleft" format="1">
  <advance width="403.0"/>
  <unicode hex="2018"/>
  <outline>
    <contour>
      <point x="268.0" y="910.9" type="line"/>
      <point x="195.0" y="910.9" type="line"/>
      <point x="62.5" y="1456.0" type="line"/>
      <point x="193.0" y="1456.0" type="line"/>
    </contour>
  </outline>
</glyph>
<glyph name="quotedblleft" format="1">
  <advance width="1024.0"/>
  <unicode hex="201C"/>
  <outline>
    <contour>
      <point x="228.0" y="910.9" type="line"/>
      <point x="347.5" y="1456.0" type="line"/>
      <point x="395.0" y="1456.0" type="line"/>
      <point x="299.5" y="910.9" type="line"/>
    </contour>
    <contour>
      <point x="457.0" y="910.9" type="line"/>
      <point x="586.5" y="1456.0" type="line"/>
      <point x="635.0" y="1456.0" type="line"/>
      <point x="540.5" y="910.9" type="line"/>
    </contour>
  </outline>
</glyph>
<glyph name="quotedblright" format="1">
  <advance width="1024.0"/>
  <unicode hex="201D"/>
  <outline>
    <contour>
      <point x="244.0" y="910.9" type="line"/>
      <point x="339.0" y="1456.0" type="line"/>
      <point x="419.0" y="1456.0" type="line"/>
      <point x="269.5" y="910.9" type="line"/>
    </contour>
    <contour>
      <point x="472.0" y="910.9" type="line"/>
      <point x="566.5" y="1456.0" type="line"/>
      <point x="650.5" y="1456.0" type="line"/>
      <point x="514.0" y="910.9" type="line"/>
    </contour>
  </outline>
</glyph>
<glyph name="fraction" format="1">
  <advance width="964.5"/>
  <unicode hex="2044"/>
  <outline>
    <contour>
      <point x="0.0" y="0.0" type="line"/>
      <point x="926.5" y="1456.0" type="line"/>
      <point x="968.0" y="1456.0" type="line"/>
      <point x="42.5" y="0.0" type="line"/>
    </contour>
  </outline>
</glyph>
<glyph name="partialdiff" format="1">
  <advance width="1165.5"/>
  <unicode hex="2202"/>
  <outline>
    <contour>
      <point x="504.5" y="-24.0" type="curve" smooth="yes"/>
      <point x="883.0" y="-24.0"/>
      <point x="1085.0" y="433.4"/>
      <point x="1085.0" y="880.8" type="curve" smooth="yes"/>
      <point x="1085.0" y="1353.4"/>
      <point x="905.5" y="1570.3"/>
      <point x="616.5" y="1570.3" type="curve" smooth="yes"/>
      <point x="502.0" y="1570.3"/>
      <point x="403.5" y="1533.6"/>
      <point x="334.0" y="1493.7" type="curve"/>
      <point x="341.0" y="1414.1" type="line"/>
      <point x="449.0" y="1494.9"/>
      <point x="540.5" y="1500.1"/>
      <point x="583.0" y="1500.1" type="curve" smooth="yes"/>
      <point x="861.5" y="1500.1"/>
      <point x="1016.5" y="1256.2"/>
      <point x="1005.5" y="850.8" type="curve" smooth="yes"/>
      <point x="1003.0" y="876.1"/>
      <point x="1003.0" y="722.0"/>
      <point x="1003.0" y="747.3" type="curve"/>
      <point x="950.0" y="833.4"/>
      <point x="848.0" y="1002.0"/>
      <point x="598.46" y="1002.0" type="curve" smooth="yes"/>
      <point x="330.0" y="1002.0"/>
      <point x="122.0" y="745.7"/>
      <point x="122.0" y="410.5" type="curve" smooth="yes"/>
      <point x="122.0" y="165.4"/>
      <point x="250.5" y="-24.0"/>
    </contour>
    <contour>
      <point x="511.5" y="43.6" type="curve" smooth="yes"/>
      <point x="322.0" y="43.6"/>
      <point x="198.5" y="187.5"/>
      <point x="198.5" y="409.8" type="curve" smooth="yes"/>
      <point x="198.5" y="689.1"/>
      <point x="389.5" y="930.5"/>
      <point x="633.5" y="930.5" type="curve" smooth="yes"/>
      <point x="825.0" y="930.5"/>
      <point x="943.0" y="810.2"/>
      <point x="983.5" y="665.8" type="curve"/>
      <point x="968.5" y="431.9"/>
      <point x="841.0" y="43.6"/>
    </contour>
  </outline>
</glyph>
<glyph name="product" format="1">
  <advance width="1568.0"/>
  <unicode hex="220F"/>
  <outline>
    <contour>
      <point x="294.0" y="-100.0" type="line"/>
      <point x="294.0" y="1365.3" type="line"/>
      <point x="178.0" y="1365.3" type="line"/>
      <point x="174.5" y="1456.0" type="line"/>
      <point x="1467.0" y="1456.0" type="line"/>
      <point x="1465.5" y="1365.3" type="line"/>
      <point x="1336.5" y="1365.3" type="line"/>
      <point x="1336.5" y="-100.0" type="line"/>
      <point x="1270.0" y="-100.0" type="line"/>
      <point x="1270.0" y="1365.3" type="line"/>
      <point x="364.0" y="1365.3" type="line"/>
      <point x="364.0" y="-100.0" type="line"/>
    </contour>
  </outline>
</glyph>
<glyph name="summation" format="1">
  <advance width="1070.5"/>
  <unicode hex="2211"/>
  <outline>
    <contour>
      <point x="101.5" y="-77.8" type="line"/>
      <point x="101.5" y="-40.9" type="line"/>
      <point x="613.5" y="707.5" type="line"/>
      <point x="120.0" y="1403.3" type="line"/>
      <point x="120.0" y="1452.7" type="line"/>
      <point x="992.0" y="1452.7" type="line"/>
      <point x="992.0" y="1398.3" type="line"/>
      <point x="210.5" y="1398.3" type="line"/>
      <point x="681.0" y="720.4" type="line"/>
      <point x="163.0" y="-26.3" type="line"/>
      <point x="1034.0" y="-26.3" type="line"/>
      <point x="1034.0" y="-77.8" type="line"/>
    </contour>
  </outline>
</glyph>
<glyph name="minus" format="1">
  <advance width="912.0"/>
  <unicode hex="2212"/>
  <outline>
    <contour>
      <point x="126.0" y="704.4" type="line"/>
      <point x="126.0" y="777.6" type="line"/>
      <point x="789.5" y="777.6" type="line"/>
      <point x="789.5" y="704.4" type="line"/>
    </contour>
  </outline>
</glyph>
<glyph name="infinity" format="1">
  <advance width="1704.0"/>
  <unicode hex="221E"/>
  <outline>
    <contour>
      <point x="452.0" y="241.9" type="curve" smooth="yes"/>
      <point x="242.5" y="241.9"/>
      <point x="96.0" y="405.4"/>
      <point x="96.0" y="597.6" type="curve" smooth="yes"/>
      <point x="96.0" y="773.1"/>
      <point x="264.5" y="913.9"/>
      <point x="447.0" y="913.9" type="curve" smooth="yes"/>
      <point x="608.5" y="913.9"/>
      <point x="731.5" y="808.0"/>
      <point x="846.0" y="665.5" type="curve"/>
      <point x="954.5" y="804.0"/>
      <point x="1076.5" y="913.9"/>
      <point x="1240.5" y="913.9" type="curve" smooth="yes"/>
      <point x="1455.5" y="913.9"/>
      <point x="1594.0" y="774.1"/>
      <point x="1594.0" y="581.9" type="curve" smooth="yes"/>
      <point x="1594.0" y="377.4"/>
      <point x="1427.5" y="241.9"/>
      <point x="1238.5" y="241.9" type="curve" smooth="yes"/>
      <point x="1092.0" y="241.9"/>
      <point x="974.5" y="330.8"/>
      <point x="844.0" y="489.3" type="curve"/>
      <point x="731.5" y="349.5"/>
      <point x="610.5" y="241.9"/>
    </contour>
    <contour>
      <point x="439.0" y="324.9" type="curve" smooth="yes"/>
      <point x="574.5" y="324.9"/>
      <point x="683.0" y="433.8"/>
      <point x="781.5" y="575.9" type="curve"/>
      <point x="683.0" y="724.0"/>
      <point x="574.5" y="837.5"/>
      <point x="429.0" y="837.5" type="curve" smooth="yes"/>
      <point x="279.5" y="837.5"/>
      <point x="183.0" y="717.7"/>
      <point x="183.0" y="581.2" type="curve" smooth="yes"/>
      <point x="183.0" y="447.1"/>
      <point x="289.5" y="324.9"/>
    </contour>
    <contour>
      <point x="1243.0" y="324.9" type="curve" smooth="yes"/>
      <point x="1399.5" y="324.9"/>
      <point x="1483.5" y="449.4"/>
      <point x="1483.5" y="609.5" type="curve" smooth="yes"/>
      <point x="1483.5" y="734.3"/>
      <point x="1376.5" y="837.5"/>
      <point x="1238.0" y="837.5" type="curve" smooth="yes"/>
      <point x="1100.5" y="837.5"/>
      <point x="981.5" y="711.7"/>
      <point x="897.0" y="581.2" type="curve"/>
      <point x="1020.0" y="411.8"/>
      <point x="1113.5" y="324.9"/>
    </contour>
  </outline>
</glyph>
<glyph name="integral" format="1">
  <advance width="624.0"/>
  <unicode hex="222B"/>
  <outline>
    <contour>
      <point x="87.0" y="-273.8" type="curve" smooth="yes"/>
      <point x="25.0" y="-273.8"/>
      <point x="-10.0" y="-261.0"/>
      <point x="-10.0" y="-261.0" type="curve"/>
      <point x="-10.0" y="-187.6" type="line"/>
      <point x="-10.0" y="-187.6"/>
      <point x="16.5" y="-200.3"/>
      <point x="59.0" y="-200.3" type="curve" smooth="yes"/>
      <point x="252.5" y="-200.3"/>
      <point x="289.5" y="-109.6"/>
      <point x="289.5" y="65.1" type="curve" smooth="yes"/>
      <point x="289.5" y="1239.9" type="line" smooth="yes"/>
      <point x="289.5" y="1450.0"/>
      <point x="321.0" y="1609.7"/>
      <point x="546.5" y="1609.7" type="curve" smooth="yes"/>
      <point x="624.5" y="1609.7"/>
      <point x="621.0" y="1591.3"/>
      <point x="621.0" y="1591.3" type="curve"/>
      <point x="621.0" y="1527.4" type="line"/>
      <point x="621.0" y="1527.4"/>
      <point x="616.0" y="1538.5"/>
      <point x="562.5" y="1538.5" type="curve" smooth="yes"/>
      <point x="375.5" y="1538.5"/>
      <point x="359.5" y="1442.2"/>
      <point x="359.5" y="1267.5" type="curve" smooth="yes"/>
      <point x="359.5" y="95.0" type="line" smooth="yes"/>
      <point x="359.5" y="-115.1"/>
      <point x="307.5" y="-273.8"/>
    </contour>
  </outline>
</glyph>
<glyph name="notequal" format="1">
  <advance width="1312.0"/>
  <unicode hex="2260"/>
  <outline>
    <contour>
      <point x="411.0" y="56.8" type="line"/>
      <point x="367.0" y="62.7" type="line"/>
      <point x="515.0" y="350.2" type="line"/>
      <point x="170.5" y="350.2" type="line"/>
      <point x="170.5" y="402.8" type="line"/>
      <point x="539.5" y="402.8" type="line"/>
      <point x="738.0" y="783.3" type="line"/>
      <point x="170.5" y="783.3" type="line"/>
      <point x="170.5" y="836.9" type="line"/>
      <point x="761.0" y="836.9" type="line"/>
      <point x="906.5" y="1125.3" type="line"/>
      <point x="949.5" y="1117.1" type="line"/>
      <point x="805.5" y="836.9" type="line"/>
      <point x="1141.5" y="836.9" type="line"/>
      <point x="1141.5" y="783.3" type="line"/>
      <point x="783.5" y="783.3" type="line"/>
      <point x="582.0" y="402.8" type="line"/>
      <point x="1141.5" y="402.8" type="line"/>
      <point x="1141.5" y="350.2" type="line"/>
      <point x="560.5" y="350.2" type="line"/>
    </contour>
  </outline>
</glyph>
<glyph name="greaterequal" format="1">
  <advance width="1347.5"/>
  <unicode hex="2265"/>
  <outline>
    <contour>
      <point x="352.0" y="0.0" type="line"/>
      <point x="352.0" y="60.5" type="line"/>
      <point x="1155.5" y="60.5" type="line"/>
      <point x="1155.5" y="0.0" type="line"/>
    </contour>
    <contour>
      <point x="373.5" y="1020.0" type="line"/>
      <point x="1099.5" y="564.5" type="line"/>
      <point x="1099.5" y="499.7" type="line"/>
      <point x="366.0" y="136.5" type="line"/>
      <point x="366.0" y="218.2" type="line"/>
      <point x="1038.0" y="543.8" type="line"/>
      <point x="373.5" y="935.7" type="line"/>
    </contour>
  </outline>
</glyph>
<glyph name="commaaccent" format="1">
  <advance width="540.0"/>
  <outline>
    <contour>
      <point x="175.5" y="-543.3" type="line"/>
      <point x="277.0" y="-120.2" type="line"/>
      <point x="364.5" y="-120.2" type="line"/>
      <point x="218.0" y="-543.3" type="line"/>
    </contour>
  </outline>
</glyph>
